:SAMPLES-PER-SECOND 30
:FULLY-SPECIFIED
:DEGREES
347
root  22.4256 38.2975 8.47883 142.231 80.549 146.844
RightUpLeg  6.63524 -8.14345 -9.20559
RightLeg  47.9526 5.13767 5.71308
RightFoot  -3.82636 -0.735424 10.6068
RightToes  -8.73116e-010 0 -3.6325e-017
Spine  9.27662 2.60962 5.27224
Spine1  5.6725 6.21994 -15.7354
HEad  -16.8454 -1.58052 -2.11806
LeftShoulder1  -0.864682 5.77096 -31.9633
LeftArm  -5.38206 24.8078 -32.989
LeftForeArm  21.5363 -8.05376 -6.97571
LeftHand  -0.0289132 6.05386 1.37815
RightShoulder  -0.776137 -5.73532 28.151
RightArm  32.7167 -0.925141 53.922
RightForeArm  5.28337 29.5247 6.13509
RightHand  -0.470821 3.41826 -6.45687
LeftUpLeg  -12.738 2.4701 -9.41937
LeftLeg  16.3849 -0.268121 -0.655659
LeftFoot  0.802998 -0.62672 5.83608
LeftToes  -5.63919e-011 3.32596e-011 1.92487e-011
348
root  21.1085 38.0773 8.45947 136.865 81.5705 141.502
RightUpLeg  11.4593 -7.08694 -8.50957
RightLeg  42.6907 7.9236 7.50559
RightFoot  -4.12961 -0.971772 15.1065
RightToes  -8.73116e-010 0 -3.6325e-017
Spine  9.14076 2.95558 7.07076
Spine1  5.86685 7.06448 -17.2395
HEad  -15.5793 -2.37274 -2.78741
LeftShoulder1  -0.957982 6.0081 -32.0765
LeftArm  -5.97656 26.3175 -33.3765
LeftForeArm  20.5969 -8.8077 -6.55742
LeftHand  -0.0279099 5.56848 0.743974
RightShoulder  -0.810529 -5.82536 28.3008
RightArm  33.9303 0.166035 53.7792
RightForeArm  4.38867 27.636 5.72949
RightHand  -0.389509 3.87881 -5.14384
LeftUpLeg  -14.9193 2.46714 -9.55119
LeftLeg  16.29 0.954185 -0.300327
LeftFoot  2.10863 -0.621908 5.16904
LeftToes  -5.63919e-011 3.32596e-011 1.92487e-011
349
root  19.7295 37.9381 8.43303 125.698 82.9568 130.043
RightUpLeg  15.1861 -4.63282 -7.29436
RightLeg  35.4301 8.20321 6.03545
RightFoot  -10.9699 -0.140001 14.5825
RightToes  -8.73116e-010 0 -3.6325e-017
Spine  9.24842 3.46981 9.02121
Spine1  5.40211 8.16077 -18.8215
HEad  -14.3678 -2.24642 -3.36444
LeftShoulder1  -0.916375 5.94431 -31.3721
LeftArm  -6.43715 27.7552 -34.9013
LeftForeArm  19.3945 -10.1667 -6.21426
LeftHand  -0.0372772 5.74588 -0.168925
RightShoulder  -0.783956 -5.73423 28.5147
RightArm  36.6033 1.71705 53.6293
RightForeArm  1.5553 25.1944 5.2887
RightHand  -0.453568 3.48308 -6.17296
LeftUpLeg  -16.658 2.33204 -9.34247
LeftLeg  14.6368 3.13683 -0.0485615
LeftFoot  3.02792 -0.419973 3.19115
LeftToes  -5.63919e-011 3.32596e-011 1.92487e-011
350
root  18.2413 37.8464 8.43508 114.212 83.8524 118.205
RightUpLeg  17.866 -1.63238 -5.37208
RightLeg  26.9369 6.48639 3.34537
RightFoot  -17.7726 0.450951 10.4287
RightToes  -8.73116e-010 0 -3.6325e-017
Spine  9.49989 3.51462 10.5735
Spine1  5.34859 8.61343 -19.2944
HEad  -14.3698 -0.159217 -5.19607
LeftShoulder1  -0.973301 6.05474 -31.984
LeftArm  -6.59806 26.872 -35.9264
LeftForeArm  18.5918 -10.5784 -6.161
LeftHand  -0.0275788 5.12091 0.240555
RightShoulder  -0.690267 -5.49748 27.9425
RightArm  37.7379 3.88057 54.2607
RightForeArm  0.381421 22.243 5.12683
RightHand  -0.48772 3.76409 -6.43734
LeftUpLeg  -17.8669 1.51708 -8.62427
LeftLeg  11.6945 5.85502 -0.149063
LeftFoot  3.89174 -0.181114 1.17642
LeftToes  -5.63919e-011 3.32596e-011 1.92487e-011
351
root  16.5542 37.7648 8.43863 101.678 85.1292 105.549
RightUpLeg  17.8858 0.684365 -3.12927
RightLeg  21.8936 3.47366 1.33689
RightFoot  -22.6433 0.334891 4.7788
RightToes  -8.73116e-010 0 -3.6325e-017
Spine  11.1755 3.05082 13.1914
Spine1  4.70362 8.77721 -20.3899
HEad  -14.9914 2.34056 -6.87671
LeftShoulder1  -0.92366 5.92622 -31.9586
LeftArm  -6.47136 24.9387 -37.5375
LeftForeArm  19.0378 -10.8995 -6.28056
LeftHand  -0.0256458 4.79502 -0.1648
RightShoulder  -0.652679 -5.40625 27.6012
RightArm  35.571 6.92008 54.9142
RightForeArm  2.92873 18.4143 6.44255
RightHand  -0.439947 3.37169 -6.07851
LeftUpLeg  -18.6435 1.03508 -6.87807
LeftLeg  8.07584 7.91704 -0.928607
LeftFoot  3.28046 0.21344 -1.82832
LeftToes  -5.63919e-011 3.32596e-011 1.92487e-011
352
root  14.8486 37.8119 8.40318 107.454 86.8434 111.96
RightUpLeg  17.4677 0.0375279 -0.734621
RightLeg  18.5611 0.912751 -0.0436361
RightFoot  -23.9434 -0.132484 0.233864
RightToes  -8.73116e-010 0 -3.6325e-017
Spine  13.2531 1.75151 16.6715
Spine1  4.78791 8.20127 -20.6845
HEad  -15.7966 4.3436 -9.0197
LeftShoulder1  -0.942476 5.96579 -32.1057
LeftArm  -5.82812 21.5086 -39.2718
LeftForeArm  20.8277 -11.0881 -6.62053
LeftHand  -0.0298466 4.3337 0.693645
RightShoulder  -0.687639 -5.4732 28.2274
RightArm  31.584 10.6901 54.0146
RightForeArm  5.88288 14.7543 8.26345
RightHand  -0.433464 2.59895 -6.50424
LeftUpLeg  -17.9298 0.999376 -4.64709
LeftLeg  3.52064 7.44031 -1.92255
LeftFoot  0.770096 0.456879 -4.34583
LeftToes  -5.63919e-011 3.32596e-011 1.92487e-011
353
root  13.2245 37.8731 8.3875 145.736 87.5296 150.422
RightUpLeg  16.0121 -4.52607 -0.282148
RightLeg  16.7656 2.83736 0.203107
RightFoot  -24.3132 -0.507298 -3.02298
RightToes  -8.73116e-010 0 -3.6325e-017
Spine  14.335 0.584995 18.5906
Spine1  5.02924 7.03642 -19.1373
HEad  -15.4775 5.72604 -10.5093
LeftShoulder1  -0.817927 5.65314 -31.8963
LeftArm  -4.24359 18.7852 -41.318
LeftForeArm  22.7309 -12.2294 -6.8304
LeftHand  -0.0371081 3.85576 1.69246
RightShoulder  -0.608671 -5.26683 27.7968
RightArm  25.8112 12.4533 53.0356
RightForeArm  9.07033 11.88 9.0274
RightHand  -0.415799 2.41687 -6.37729
LeftUpLeg  -17.2693 1.09665 -3.28557
LeftLeg  -1.21419 3.60142 -2.09569
LeftFoot  -3.20173 0.605815 -8.64801
LeftToes  -5.63919e-011 3.32596e-011 1.92487e-011
354
root  11.7771 38.0022 8.39483 -177.744 87.1383 -173.593
RightUpLeg  12.8238 -6.35848 0.948465
RightLeg  17.2561 3.60837 0.760008
RightFoot  -23.6402 -0.61211 -4.20202
RightToes  -8.73116e-010 0 -3.6325e-017
Spine  14.2431 0.300066 18.9503
Spine1  5.08652 5.90898 -15.7746
HEad  -13.9764 7.24785 -10.9771
LeftShoulder1  -0.744777 5.45736 -31.9677
LeftArm  -0.521613 16.3979 -42.5071
LeftForeArm  23.5176 -14.1171 -6.84892
LeftHand  -0.0314331 2.28989 0.706247
RightShoulder  -0.582631 -5.16921 28.2211
RightArm  21.6074 14.1314 50.7945
RightForeArm  11.4672 9.19072 9.38789
RightHand  -0.3763 2.53368 -5.71402
LeftUpLeg  -17.3108 1.24973 -1.79609
LeftLeg  -4.55702 -1.00017 -1.59488
LeftFoot  -6.10323 0.705464 -14.2682
LeftToes  -5.63919e-011 3.32596e-011 1.92487e-011
355
root  10.3996 38.3343 8.4398 -163.216 85.847 -159.491
RightUpLeg  10.0149 -7.65282 1.86326
RightLeg  17.084 3.77138 1.34911
RightFoot  -21.0418 -0.519422 -4.42596
RightToes  -8.73116e-010 0 -3.6325e-017
Spine  14.1005 0.194518 17.7732
Spine1  5.67579 4.77491 -11.7594
HEad  -11.9661 8.52792 -10.8053
LeftShoulder1  -0.66713 5.26217 -31.7871
LeftArm  4.29565 14.3644 -43.4844
LeftForeArm  21.1635 -16.6992 -6.32065
LeftHand  -0.0464694 3.065 1.53084
RightShoulder  -0.552761 -5.07595 28.3594
RightArm  18.2826 14.8087 48.8736
RightForeArm  12.2115 6.97223 9.23704
RightHand  -0.411204 2.74534 -6.09601
LeftUpLeg  -18.349 1.4478 -0.899379
LeftLeg  -2.52063 -2.7984 -1.0085
LeftFoot  -4.46753 0.75361 -12.0452
LeftToes  -5.63919e-011 3.32596e-011 1.92487e-011
356
root  9.20323 38.7192 8.51808 -172.158 84.7664 -168.625
RightUpLeg  8.15188 -7.93638 1.71713
RightLeg  16.1133 2.85639 1.24372
RightFoot  -18.3981 -0.381264 -4.16722
RightToes  -8.73116e-010 0 -3.6325e-017
Spine  14.2147 0.360343 14.8194
Spine1  5.86799 3.79663 -8.02344
HEad  -8.94166 8.77875 -9.4116
LeftShoulder1  -0.548836 4.98321 -30.9171
LeftArm  7.25012 12.6332 -44.2203
LeftForeArm  20.0466 -18.654 -5.52771
LeftHand  -0.0608895 2.56705 1.95034
RightShoulder  -0.602452 -5.20712 28.6218
RightArm  14.9667 13.3243 47.4535
RightForeArm  12.6134 6.12586 8.14245
RightHand  -0.331975 1.25412 -5.93841
LeftUpLeg  -18.4026 1.55298 -1.03631
LeftLeg  1.298 -1.15604 -1.09522
LeftFoot  -4.19182 0.700643 -10.7913
LeftToes  -5.63919e-011 3.32596e-011 1.92487e-011
